<?xml version="1.0" encoding="UTF-8" standalone="no"?>
<!-- Created with Inkscape (http://www.inkscape.org/) -->

<svg
   width="123.48833mm"
   height="146.19727mm"
   viewBox="0 0 123.48833 146.19727"
   version="1.1"
   id="svg5"
   inkscape:version="1.2.2 (732a01da63, 2022-12-09)"
   sodipodi:docname="favicon.svg"
   xmlns:inkscape="http://www.inkscape.org/namespaces/inkscape"
   xmlns:sodipodi="http://sodipodi.sourceforge.net/DTD/sodipodi-0.dtd"
   xmlns="http://www.w3.org/2000/svg"
   xmlns:svg="http://www.w3.org/2000/svg">
  <sodipodi:namedview
     id="namedview7"
     pagecolor="#505050"
     bordercolor="#eeeeee"
     borderopacity="1"
     inkscape:showpageshadow="0"
     inkscape:pageopacity="0"
     inkscape:pagecheckerboard="0"
     inkscape:deskcolor="#505050"
     inkscape:document-units="mm"
     showgrid="false"
     inkscape:zoom="0.26362494"
     inkscape:cx="902.79773"
     inkscape:cy="72.072088"
     inkscape:window-width="1920"
     inkscape:window-height="1017"
     inkscape:window-x="1912"
     inkscape:window-y="-8"
     inkscape:window-maximized="1"
     inkscape:current-layer="layer1" />
  <defs
     id="defs2">
    <clipPath
       clipPathUnits="userSpaceOnUse"
       id="clipPath1510">
      <ellipse
         style="fill:#28170b;stroke-width:0.264583"
         id="ellipse1512"
         cx="172.3629"
         cy="126.6746"
         rx="14.282257"
         ry="13.57258" />
    </clipPath>
  </defs>
  <g
     inkscape:label="Capa 1"
     inkscape:groupmode="layer"
     id="layer1"
     transform="translate(-32.640697,-83.032261)">
    <path
       style="fill:#6f6f91;stroke-width:0.264583"
       d="m 44.354839,130.2258 -11.532258,-3.19354 10.467742,11.17742 z"
       id="path1151" />
    <path
       style="fill:#6f6f91;stroke-width:0.264583"
       d="m 46.306451,122.95161 -8.16129,-5.67742 6.032257,9.93549 z"
       id="path1153" />
    <path
       style="fill:#6f6f91;stroke-width:0.264583"
       d="m 43.290323,138.74193 c 0,0 -10.467742,5.32258 -10.645161,11.53226 -0.177419,6.20968 4.96774,9.58065 9.048387,7.09678 4.080645,-2.48388 5.322581,-9.40323 5.322581,-9.40323 l -1.951616,-1.95162 c 0,0 -0.887096,7.62904 -3.903224,8.69356 -3.016129,1.06451 -6.253196,0.30121 -5.500001,-4.08065 1.264997,-7.35937 7.26415,-8.37887 7.274193,-8.3387 z"
       id="path987"
       sodipodi:nodetypes="cssccsscc" />
    <circle
       style="fill:#e9c6af;stroke-width:0.264583"
       id="path215"
       cx="98.999992"
       cy="139.45161"
       r="56.419353" />
    <path
       style="fill:#1a1a1a;stroke-width:0.264583"
       d="m 42.225806,139.45161 c 0,0 2.128521,89.13638 55.709676,89.7742 56.061668,0.66734 58.193548,-88.70968 58.193548,-88.70968 l -31.58065,32.29032 c 0,0 2.12904,-10.29032 -2.8387,-13.83871 -4.96775,-3.54839 -40.451618,-5.67742 -45.419358,-1.41936 -4.967742,4.25807 -3.548387,14.54839 -3.548387,14.54839 z"
       id="path399"
       sodipodi:nodetypes="csccsscc" />
    <path
       style="fill:#f9f9f9;stroke-width:0.264583"
       d="m 69.903226,124.54839 c 0,0 7.274191,16.5 26.612902,16.14516 19.338712,-0.35484 29.096772,-14.54839 29.096772,-14.54839 0,0 -7.27419,-17.74194 -27.677417,-17.03226 -20.403225,0.70968 -28.032257,15.43549 -28.032257,15.43549 z"
       id="path1155"
       sodipodi:nodetypes="cscsc" />
    <path
       style="fill:#28170b;stroke-width:0.264583"
       d="m 144.95162,130.48911 c 0,0 7.27419,16.5 26.6129,16.14516 19.33871,-0.35484 29.09677,-14.54839 29.09677,-14.54839 0,0 -7.27419,-17.74194 -27.67741,-17.03226 -20.40323,0.70968 -28.03226,15.43549 -28.03226,15.43549 z"
       id="path1155-9"
       sodipodi:nodetypes="cscsc"
       clip-path="url(#clipPath1510)"
       transform="translate(-75.048387,-6.0322581)" />
    <ellipse
       style="fill:#000000;stroke-width:0.264583"
       id="path1209"
       cx="97.403221"
       cy="119.58064"
       rx="5.8548388"
       ry="6.032258" />
    <ellipse
       style="fill:#f9f9f9;stroke-width:0.264583"
       id="path1475"
       cx="93.233864"
       cy="115.94354"
       rx="1.6854838"
       ry="1.8629032" />
    <path
       style="fill:#1a1a1a;stroke-width:0.264583"
       d="m 75.870345,97.647456 8.030623,7.209464 -0.887666,-4.32438 11.128579,4.40874 -2.546192,-5.097847 13.785271,4.157667 -1.02941,-4.535107 11.9393,6.991737 -2.02236,-4.99755 11.22461,5.14599 -7.29104,-7.534187 3.37045,-1.693513 -16.18406,-1.211283 3.92419,-4.526902 -16.364852,4.910001 2.119569,-5.029142 -14.120999,6.340252 2.784341,-3.677807 z"
       id="path1518"
       sodipodi:nodetypes="ccccccccccccccccccc" />
  </g>
</svg>
